PathFileType	4	(x/y/z)	S09_P20_T14
DataRate	CameraRate	NumFrames	NumMarkers	Units	OrigDataRate	OrigDataStartFrame	OrigNumFrames
240	240	8	51	mm	240	150	398
Frame#	Time	Sternum			R.Acromium			L.Acromium			Top.Head			R.ASIS			L.ASIS			R.PSIS			L.PSIS			R.Great.Tro			L.Great.Tro			R.Iliac.Crest			L.Iliac.Crest			V.Sacral			R.Thigh.Upper.Post			R.Thigh.Lower.Ant			R.Thigh.Lower.Post			R.Thigh.Upper.Ant			R.Knee.Lat			R.Knee.Med			R.Shank.Upper.Post			R.Shank.Lower.Ant			R.Shank.Lower.Post			R.Shank.Upper.Ant			R.Ankle.Lat			R.Ankle.Med			R.Heel.Upper			R.Heel.Med			R.Heel.Lat			R.Toe.Lat			R.Toe.Med			R.Toe.Tip			L.Thigh.Upper.Post			L.Thigh.Lower.Ant			L.Thigh.Lower.Post			L.Thigh.Upper.Ant			L.Knee.Lat			L.Knee.Med			L.Shank.Upper.Post			L.Shank.Lower.Ant			L.Shank.Lower.Post			L.Shank.Upper.Ant			L.Ankle.Lat			L.Ankle.Med			L.Heel.Upper			L.Heel.Med			L.Heel.Lat			L.Toe.Lat			L.Toe.Med			L.Toe.Tip			Cervical.Spine			Back			
		X1	Y1	Z1	X2	Y2	Z2	X3	Y3	Z3	X4	Y4	Z4	X5	Y5	Z5	X6	Y6	Z6	X7	Y7	Z7	X8	Y8	Z8	X9	Y9	Z9	X10	Y10	Z10	X11	Y11	Z11	X12	Y12	Z12	X13	Y13	Z13	X14	Y14	Z14	X15	Y15	Z15	X16	Y16	Z16	X17	Y17	Z17	X18	Y18	Z18	X19	Y19	Z19	X20	Y20	Z20	X21	Y21	Z21	X22	Y22	Z22	X23	Y23	Z23	X24	Y24	Z24	X25	Y25	Z25	X26	Y26	Z26	X27	Y27	Z27	X28	Y28	Z28	X29	Y29	Z29	X30	Y30	Z30	X31	Y31	Z31	X32	Y32	Z32	X33	Y33	Z33	X34	Y34	Z34	X35	Y35	Z35	X36	Y36	Z36	X37	Y37	Z37	X38	Y38	Z38	X39	Y39	Z39	X40	Y40	Z40	X41	Y41	Z41	X42	Y42	Z42	X43	Y43	Z43	X44	Y44	Z44	X45	Y45	Z45	X46	Y46	Z46	X47	Y47	Z47	X48	Y48	Z48	X49	Y49	Z49	X50	Y50	Z50	X51	Y51	Z51	

150	0.62083	-540.25	1175.3	353.53	-684.75	1427.7	505.45	-681.91	1421.5	191.5	-661.81	1730.8	344.02	-589.48	1013	450.13	-615.54	1004	206.11	-818.26	1029.1	398.11	-819.72	1029.4	308.11	-656.72	929.61	531.42	-699.14	911.98	145.95	-674.65	1089.6	503.27	-722.24	1100.8	183.13	-836.44	992.7	352.03	-596.9	685.77	505.59	-507.66	607.5	451.69	-583.13	596.73	474.88	-527.52	690.74	484.15	-511.59	528.05	444.61	-527.92	519.87	325.03	-568.39	346.04	456.89	-497.43	291.24	439.15	-565.49	269.96	446.05	-505.92	363.98	451.95	-528.36	89.76	424.65	-506.05	103.01	338.82	-591.89	75.429	373.78	-579.51	44.143	345.22	-588.85	44.684	409.34	-427.32	41.656	461.21	-380.58	46.36	354.99	-333.6	64.663	400.74	-771.12	660.63	205.57	-696.43	558.86	186.24	-756.7	570.21	218.06	-706.98	646.76	169.74	-728.31	488.79	196.34	-672.67	481.88	321.52	-844.94	426.5	201.59	-860.97	317.21	205.91	-897.26	370.52	212.96	-808.26	374.21	195.82	-1022.8	213.06	242.84	-999.91	194.71	330.65	-1079.7	248.34	307.86	-1086.3	228.03	344.35	-1109.2	233.37	286.85	-1042.2	83.384	220.84	-997.7	59.22	323.17	-969.97	37.939	260.35	-765.9	1466.7	357.12	-806.4	1202	343.92
151	0.625	-534.69	1176.1	353.82	-678.96	1428.4	505.89	-676.61	1422.1	191.98	-656.25	1731.4	344.36	-583.67	1014	450.53	-609.73	1004.5	206.53	-812.45	1029.7	398.3	-813.97	1029.6	308.3	-650.94	930.55	531.86	-692.88	912.14	146.38	-668.93	1090.5	503.62	-716.62	1101	183.37	-830.62	993.06	352.34	-592.09	686.21	506.07	-503.23	607.54	452.16	-578.76	597.14	475.34	-522.7	690.84	484.7	-507.64	528	444.93	-523.77	519.97	325.43	-565.82	346.3	457.19	-495.3	290.95	439.32	-563.54	270.2	446.26	-503.2	363.75	452.19	-528.11	89.799	424.63	-505.79	102.94	338.8	-591.75	75.533	373.79	-579.41	44.249	345.22	-588.77	44.777	409.36	-427.29	41.573	461.3	-380.45	45.963	354.9	-333.41	64.026	400.72	-762.36	659.98	205.37	-686.78	558.98	185.15	-746.81	569.57	217.45	-698.32	646.82	169.03	-717.87	489.11	194.89	-661.3	481.6	319.98	-834.34	428.08	200.73	-851.54	318.92	204.67	-887.2	372.61	212.17	-798.26	375.4	194.5	-1013.9	216.25	241.93	-990.97	197.45	329.76	-1068.6	253.78	307.28	-1075.8	233.83	343.89	-1098.9	239.62	286.5	-1037.3	86.639	220.73	-992.9	61.338	322.79	-966.51	37.875	259.82	-760.37	1467.3	357.71	-800.75	1202.6	344.49
152	0.62917	-529.16	1176.8	354.07	-673.16	1429.1	506.3	-671.32	1422.8	192.44	-650.68	1732	344.7	-577.88	1014.9	450.93	-603.95	1005	206.95	-806.67	1030.3	398.48	-808.26	1029.8	308.49	-645.21	931.48	532.29	-686.67	912.31	146.81	-663.25	1091.4	503.96	-711.01	1101.1	183.59	-824.84	993.47	352.65	-587.48	686.61	506.52	-499.01	607.51	452.64	-574.61	597.52	475.76	-518.05	690.88	485.26	-503.9	527.91	445.27	-519.82	520.04	325.82	-563.42	346.53	457.45	-493.31	290.67	439.51	-561.73	270.43	446.43	-500.66	363.51	452.43	-527.89	89.845	424.6	-505.55	102.88	338.77	-591.62	75.627	373.79	-579.32	44.348	345.21	-588.7	44.864	409.38	-427.29	41.51	461.37	-380.34	45.63	354.81	-333.26	63.476	400.71	-753.61	659.38	205.17	-677.14	559.18	184.06	-736.93	569.01	216.83	-689.67	646.94	168.33	-707.4	489.5	193.44	-649.9	481.45	318.46	-823.64	429.65	199.84	-841.95	320.61	203.47	-877	374.66	211.37	-788.13	376.6	193.2	-1004.7	219.38	241.04	-981.83	200.16	328.92	-1057.4	259	306.66	-1065	239.37	343.38	-1088.3	245.61	286.07	-1031.9	89.935	220.55	-987.58	63.533	322.36	-962.45	37.908	259.27	-754.84	1467.9	358.28	-795.11	1203.2	345.05
153	0.63333	-523.66	1177.6	354.3	-667.38	1429.8	506.7	-666.04	1423.4	192.89	-645.12	1732.6	345.04	-572.14	1015.8	451.32	-598.21	1005.4	207.36	-800.92	1030.9	398.66	-802.59	1030	308.67	-639.54	932.41	532.71	-680.53	912.51	147.23	-657.61	1092.3	504.29	-705.41	1101.2	183.79	-819.11	993.92	352.95	-583.05	686.98	506.94	-494.99	607.41	453.13	-570.68	597.86	476.14	-513.56	690.84	485.85	-500.37	527.8	445.63	-516.08	520.09	326.2	-561.18	346.75	457.66	-491.46	290.39	439.7	-560.05	270.64	446.56	-498.28	363.28	452.67	-527.69	89.897	424.57	-505.31	102.83	338.74	-591.5	75.714	373.79	-579.23	44.44	345.21	-588.63	44.949	409.39	-427.3	41.462	461.44	-380.24	45.35	354.72	-333.13	62.999	400.69	-744.87	658.85	204.98	-667.51	559.47	182.98	-727.08	568.53	216.22	-681.04	647.14	167.64	-696.89	489.98	192	-638.5	481.42	316.95	-812.84	431.2	198.92	-832.19	322.29	202.3	-866.68	376.67	210.56	-777.86	377.8	191.91	-995.23	222.45	240.19	-972.51	202.84	328.12	-1046.1	263.94	306.01	-1054.1	244.59	342.81	-1077.5	251.28	285.58	-1025.8	93.233	220.3	-981.7	65.779	321.9	-957.71	38.055	258.69	-749.32	1468.5	358.83	-789.5	1203.8	345.58
154	0.6375	-518.18	1178.4	354.5	-661.61	1430.5	507.07	-660.77	1424.1	193.31	-639.55	1733.2	345.37	-566.43	1016.7	451.72	-592.51	1005.9	207.76	-795.21	1031.6	398.84	-796.95	1030.3	308.86	-633.91	933.33	533.12	-674.44	912.74	147.64	-651.99	1093.2	504.61	-699.82	1101.4	183.97	-813.43	994.42	353.26	-578.79	687.33	507.32	-491.15	607.24	453.63	-566.96	598.19	476.49	-509.24	690.75	486.43	-497.03	527.66	446.01	-512.56	520.11	326.56	-559.09	346.95	457.83	-489.73	290.12	439.91	-558.5	270.85	446.66	-496.06	363.05	452.92	-527.51	89.953	424.53	-505.09	102.78	338.71	-591.39	75.796	373.78	-579.15	44.528	345.19	-588.57	45.034	409.39	-427.32	41.424	461.49	-380.16	45.116	354.64	-333.02	62.587	400.69	-736.14	658.39	204.8	-657.89	559.85	181.92	-717.24	568.15	215.62	-672.43	647.42	166.97	-686.37	490.54	190.59	-627.12	481.54	315.47	-801.96	432.72	197.97	-822.29	323.94	201.18	-856.24	378.63	209.74	-767.49	379.01	190.65	-985.56	225.42	239.37	-963	205.47	327.37	-1034.7	268.57	305.35	-1043.2	249.47	342.21	-1066.6	256.58	285.03	-1019.1	96.493	219.97	-975.24	68.053	321.39	-952.24	38.334	258.08	-743.8	1469.2	359.36	-783.9	1204.5	346.1
155	0.64167	-512.73	1179.2	354.67	-655.85	1431.3	507.42	-655.53	1424.7	193.7	-633.98	1733.8	345.7	-560.75	1017.6	452.1	-586.84	1006.4	208.15	-789.53	1032.3	399.03	-791.36	1030.6	309.05	-628.32	934.23	533.52	-668.41	913.01	148.04	-646.39	1094.2	504.92	-694.25	1101.5	184.12	-807.8	994.97	353.57	-574.69	687.66	507.67	-487.49	607.01	454.13	-563.42	598.5	476.81	-505.07	690.61	487.01	-493.87	527.49	446.4	-509.26	520.12	326.9	-557.15	347.14	457.96	-488.13	289.86	440.12	-557.06	271.05	446.73	-493.98	362.82	453.17	-527.34	90.014	424.49	-504.86	102.74	338.66	-591.28	75.876	373.76	-579.07	44.613	345.18	-588.51	45.12	409.39	-427.35	41.393	461.54	-380.08	44.919	354.57	-332.93	62.227	400.68	-727.42	658	204.62	-648.3	560.32	180.87	-707.44	567.87	215.03	-663.84	647.77	166.3	-675.84	491.19	189.21	-615.77	481.8	314.04	-791.02	434.23	196.99	-812.25	325.57	200.11	-845.71	380.54	208.91	-757.01	380.22	189.42	-975.68	228.3	238.59	-953.33	208.04	326.67	-1023.3	272.86	304.68	-1032.2	253.96	341.59	-1055.6	261.46	284.42	-1011.6	99.674	219.55	-968.16	70.329	320.83	-945.99	38.758	257.43	-738.29	1469.8	359.88	-778.32	1205.1	346.59
156	0.64583	-507.3	1180	354.8	-650.09	1432	507.75	-650.31	1425.4	194.08	-628.41	1734.5	346.02	-555.11	1018.5	452.48	-581.21	1006.9	208.52	-783.89	1033.1	399.22	-785.8	1031	309.26	-622.77	935.13	533.92	-662.45	913.31	148.43	-640.81	1095.1	505.23	-688.7	1101.7	184.26	-802.21	995.56	353.88	-570.74	687.98	507.99	-484	606.74	454.62	-560.05	598.79	477.1	-501.05	690.42	487.58	-490.89	527.31	446.8	-506.17	520.11	327.23	-555.35	347.32	458.06	-486.64	289.6	440.34	-555.74	271.24	446.77	-492.05	362.6	453.43	-527.19	90.078	424.45	-504.63	102.7	338.62	-591.18	75.956	373.74	-579	44.696	345.16	-588.46	45.209	409.38	-427.38	41.365	461.57	-380.01	44.753	354.5	-332.86	61.913	400.68	-718.72	657.71	204.44	-638.72	560.89	179.85	-697.67	567.69	214.44	-655.27	648.22	165.66	-665.31	491.93	187.86	-604.49	482.22	312.65	-780.05	435.71	196	-802.08	327.18	199.08	-835.1	382.4	208.09	-746.45	381.45	188.23	-965.62	231.05	237.86	-943.5	210.53	326.02	-1012	276.77	304.01	-1021.3	258.02	340.94	-1044.5	265.88	283.77	-1003.5	102.74	219.05	-960.42	72.58	320.21	-938.92	39.334	256.74	-732.79	1470.5	360.37	-772.75	1205.8	347.08
157	0.65	-501.89	1180.8	354.9	-644.35	1432.7	508.06	-645.11	1426.1	194.43	-622.84	1735.1	346.33	-549.5	1019.4	452.85	-575.62	1007.3	208.87	-778.27	1033.8	399.43	-780.27	1031.4	309.47	-617.26	936.01	534.3	-656.56	913.65	148.8	-635.25	1096.1	505.52	-683.16	1101.9	184.39	-796.67	996.2	354.21	-566.91	688.29	508.27	-480.66	606.43	455.1	-556.84	599.07	477.36	-497.15	690.2	488.13	-488.07	527.12	447.2	-503.29	520.08	327.55	-553.68	347.49	458.13	-485.25	289.36	440.56	-554.51	271.42	446.78	-490.25	362.39	453.68	-527.05	90.145	424.4	-504.39	102.66	338.57	-591.08	76.036	373.72	-578.94	44.778	345.14	-588.4	45.303	409.38	-427.42	41.338	461.61	-379.95	44.612	354.44	-332.79	61.635	400.68	-710.05	657.49	204.26	-629.17	561.57	178.85	-687.94	567.63	213.86	-646.71	648.75	165.03	-654.79	492.77	186.56	-593.28	482.79	311.32	-769.05	437.18	195	-791.79	328.76	198.1	-824.42	384.21	207.26	-735.82	382.68	187.08	-955.39	233.66	237.18	-933.52	212.94	325.4	-1000.8	280.28	303.36	-1010.4	261.63	340.29	-1033.5	269.81	283.09	-994.74	105.64	218.44	-952.01	74.781	319.52	-930.99	40.063	255.99	-727.3	1471.2	360.84	-767.21	1206.5	347.54
